PathFileType	4	(X/Y/Z)	D:\Share\Shared_Data\Ergonomics\Sit To Stand Pertubation\S2\Unperturbed.trc
DataRate	CameraRate	NumFrames	NumMarkers	Units	OrigDataRate	OrigDataStartFrame	OrigNumFrames	
100	100	15	18	m	100	2147	251
Frame#	Time	R_Toe			R_ASIS			R_Pelvis			V_Sacral			L_Pelvis			L_ASIS			Clavical			R_Acromium			L_Acromium			Sternum			Torso			R_Thigh_Med			R_Thigh_Lat			R_Thigh			R_Shank_Med			R_Shank_Lat			R_Shank			R_Heel			
		X1	Y1	Z1	X2	Y2	Z2	X3	Y3	Z3	X4	Y4	Z4	X5	Y5	Z5	X6	Y6	Z6	X7	Y7	Z7	X8	Y8	Z8	X9	Y9	Z9	X10	Y10	Z10	X11	Y11	Z11	X12	Y12	Z12	X13	Y13	Z13	X14	Y14	Z14	X15	Y15	Z15	X16	Y16	Z16	X17	Y17	Z17	X18	Y18	Z18	

2147	21.46	0.44524948	0.064608406	0.14430132	0.38068054	1.0136921	0.1474649	0.30675671	1.0281876	0.18712608	0.17102036	1.048016	0.022888382	0.27797876	1.0440498	-0.1533718	0.37070859	1.0319688	-0.1237653	0.48487802	1.4222903	0.014137988	0.39880896	1.4637576	0.2205576	0.38618863	1.4777682	-0.16901703	0.49945456	1.2589042	0.0087035208	0.48369427	1.3847178	-0.10197098	0.39996155	0.49274606	0.09706916	0.38641577	0.51513123	0.19049284	0.43627344	0.69271228	0.16559299	0.31199768	0.10717391	0.10010899	0.28745294	0.10138535	0.19087596	0.34578275	0.36790973	0.21583458	0.20763782	0.061377472	0.13888248
2148	21.47	0.44524603	0.06460643	0.1443093	0.38349298	1.015225	0.14799776	0.30941541	1.0291494	0.18752913	0.17366263	1.0485973	0.023284088	0.2804624	1.0447389	-0.15296825	0.37363147	1.0334816	-0.12332336	0.48413025	1.4250577	0.014574259	0.39754688	1.4658468	0.22100905	0.38476166	1.4795841	-0.16855214	0.5000639	1.2617814	0.009048666	0.48323691	1.3874819	-0.10160846	0.39846573	0.49300751	0.096892143	0.38498969	0.51540887	0.19026149	0.43670233	0.69242401	0.16581393	0.31212097	0.1072143	0.10010787	0.28738647	0.10138302	0.19083759	0.34461014	0.36817596	0.21567226	0.20765065	0.061400887	0.13892775
2149	21.48	0.44523993	0.064608459	0.14431912	0.38624823	1.0166816	0.14853966	0.31202328	1.0300422	0.1879445	0.17627725	1.0491444	0.02367646	0.28293686	1.0453907	-0.15253874	0.37662793	1.034941	-0.12285652	0.48336713	1.4277303	0.015025543	0.39624277	1.4678479	0.22146553	0.38331985	1.4813058	-0.16807478	0.50068414	1.2645789	0.0093925219	0.48278311	1.3901581	-0.10124326	0.39695511	0.4932659	0.0967295	0.38352533	0.51567139	0.19004214	0.4370968	0.69213177	0.1660619	0.31222052	0.10725098	0.1001113	0.28731409	0.10137949	0.19080139	0.34340512	0.36843842	0.21551692	0.2076676	0.061413315	0.13896805
2150	21.49	0.4452319	0.064613609	0.1443304	0.38894354	1.018056	0.14909033	0.31457336	1.0308633	0.18837267	0.17886377	1.0496572	0.024062708	0.28541013	1.0460077	-0.15207761	0.37963177	1.0363248	-0.12237446	0.48259454	1.4302996	0.015488197	0.39490399	1.4697533	0.22192783	0.38187967	1.4829386	-0.16759259	0.50131525	1.267288	0.0097378769	0.48233408	1.3927383	-0.10087222	0.39543826	0.49351715	0.096585442	0.38203403	0.51591626	0.1898351	0.43744492	0.69182904	0.16634822	0.31228516	0.1072785	0.10011847	0.28723672	0.10137518	0.19076778	0.34217749	0.36869556	0.21536797	0.20768355	0.061416229	0.13899886
2151	21.5	0.44522284	0.064620621	0.14434302	0.39158099	1.0193448	0.14964995	0.31706183	1.0316112	0.18881313	0.1814212	1.0501351	0.024440632	0.28788803	1.0465914	-0.15158659	0.38258054	1.0376147	-0.12188675	0.48181744	1.4327587	0.015957164	0.39353912	1.4715542	0.22239555	0.38045609	1.4844847	-0.16711067	0.50195218	1.2699009	0.010089404	0.48188922	1.3952147	-0.10049207	0.39392285	0.49375671	0.096461098	0.38052789	0.51614056	0.18963834	0.43773828	0.69150745	0.16668208	0.31231479	0.10729543	0.1001283	0.28715485	0.10137039	0.1907364	0.34093723	0.3689455	0.21522296	0.20769547	0.061412094	0.13901872
2152	21.51	0.44521326	0.064628136	0.1443571	0.39416608	1.0205457	0.15021904	0.31948697	1.032285	0.18926421	0.18394789	1.0505757	0.024808584	0.29037207	1.0471415	-0.15107469	0.38544315	1.0388025	-0.1213989	0.48103976	1.4351027	0.016428257	0.39215692	1.4732432	0.22286769	0.3790596	1.4859427	-0.16662936	0.50258636	1.2724094	0.010452336	0.4814472	1.3975793	-0.1001003	0.39241769	0.49398004	0.096354706	0.37901904	0.51634064	0.18944872	0.43797391	0.69115796	0.1670688	0.31231525	0.10730234	0.10013917	0.28706918	0.10136551	0.19070593	0.33969382	0.36918613	0.21507875	0.20770251	0.061403606	0.13902846
2153	21.52	0.44520346	0.064635017	0.14437242	0.39670618	1.0216588	0.15079765	0.32184811	1.032885	0.18972362	0.18644107	1.0509757	0.025165222	0.29285861	1.0476561	-0.15055469	0.38821313	1.0398883	-0.12091312	0.48026407	1.4373276	0.016900017	0.39076547	1.4748129	0.22334348	0.37769559	1.4873077	-0.1661463	0.50320761	1.2748069	0.010830863	0.48100681	1.3998247	-0.09969519	0.39093561	0.49418381	0.096263786	0.37751993	0.51651361	0.18926338	0.43815448	0.69077161	0.16750847	0.3122948	0.10730063	0.10014919	0.28698032	0.10136108	0.19067433	0.33845532	0.3694155	0.21493324	0.20770523	0.061393085	0.13902975
2154	21.53	0.44519373	0.064640465	0.14438828	0.3992106	1.0226855	0.15138507	0.32414493	1.033411	0.19018797	0.1888968	1.0513302	0.025509436	0.29533868	1.0481326	-0.1500405	0.39089139	1.0408759	-0.12043036	0.47949265	1.4394297	0.017373573	0.3893718	1.4762571	0.22382336	0.37636627	1.4885752	-0.16565968	0.50380725	1.2770865	0.011227638	0.48056757	1.4019449	-0.099275429	0.38949326	0.49436523	0.096187111	0.37604291	0.51665814	0.1890798	0.43828845	0.69034161	0.1679949	0.31226178	0.10729189	0.1001565	0.28688965	0.10135775	0.1906396	0.3372294	0.36963223	0.21478584	0.20770503	0.061382355	0.13902457
2155	21.54	0.44518451	0.064644005	0.14440366	0.40169077	1.0236284	0.1519798	0.32637732	1.033864	0.19065305	0.19130992	1.0516343	0.025839994	0.29780045	1.0485667	-0.14954469	0.3934758	1.0417711	-0.11995103	0.47872806	1.4414055	0.017851206	0.38798215	1.4775701	0.22430881	0.3750726	1.48974	-0.16516847	0.50437988	1.2792427	0.011644039	0.48013013	1.4039363	-0.098840179	0.38810797	0.49452197	0.096125557	0.37460077	0.51677411	0.18889548	0.43839426	0.68986682	0.16851521	0.31222305	0.10727728	0.1001595	0.28679892	0.10135604	0.19060008	0.33602457	0.36983566	0.21463689	0.2077037	0.061372993	0.13901471
2156	21.55	0.44517621	0.06464537	0.14441768	0.40415686	1.0244899	0.15257967	0.32854517	1.0342445	0.19111426	0.19367442	1.0518811	0.02615477	0.30023224	1.048955	-0.14907555	0.39596182	1.0425804	-0.11947552	0.47797296	1.4432521	0.018335295	0.38660248	1.4787476	0.22480038	0.37381558	1.4907985	-0.16467181	0.50492413	1.2812703	0.012079906	0.47969553	1.4057958	-0.098389328	0.38679688	0.49465149	0.096082199	0.37320657	0.51686328	0.18870753	0.4385011	0.68935461	0.16905228	0.31218353	0.10725759	0.10015703	0.28671063	0.10135617	0.19055492	0.33485074	0.37002493	0.21448672	0.20770288	0.061366215	0.13900159
2157	21.56	0.4451694	0.064644386	0.14442989	0.40661093	1.0252716	0.1531815	0.33064813	1.0345535	0.19156775	0.19598405	1.0520631	0.02645035	0.3026243	1.0492933	-0.14863634	0.39834995	1.0433108	-0.11900477	0.47722952	1.4449674	0.018827995	0.38523862	1.4797876	0.22529694	0.37259671	1.4917489	-0.16416969	0.50544119	1.2831658	0.012533311	0.47926443	1.4075232	-0.097923271	0.38557721	0.49475262	0.096061554	0.3718732	0.51692841	0.18851241	0.43864127	0.68881995	0.16958931	0.31214655	0.10723338	0.10014845	0.28662698	0.10135789	0.19050407	0.33371884	0.37019901	0.21433563	0.20770355	0.061362617	0.13898627
2158	21.57	0.44516458	0.064640953	0.14444016	0.40904025	1.0259723	0.15378084	0.33268619	1.0347917	0.19201097	0.19823303	1.0521732	0.026722836	0.30496884	1.0495773	-0.14822655	0.40064893	1.0439681	-0.11854112	0.47649921	1.4465505	0.019330915	0.38389618	1.4806897	0.2257961	0.37141724	1.4925919	-0.16366423	0.50593317	1.284927	0.013001257	0.47883688	1.4091185	-0.097442398	0.38446548	0.49482617	0.096068214	0.37061188	0.5169729	0.18830716	0.43884021	0.68828058	0.17011304	0.31211438	0.10720523	0.10013373	0.28654971	0.10136071	0.19044795	0.33263962	0.37035773	0.21418417	0.20770624	0.061362377	0.1389691
2159	21.58	0.44516193	0.064635063	0.14444846	0.41141806	1.0265883	0.15437163	0.33466028	1.0349612	0.19244276	0.20041714	1.0522061	0.026969282	0.30725977	1.049802	-0.14784308	0.40287201	1.0445573	-0.11808855	0.47578189	1.4480026	0.019844334	0.38258051	1.481457	0.22629588	0.37027783	1.4933302	-0.16315906	0.50640057	1.2865538	0.013480509	0.47841226	1.4105842	-0.09694735	0.38347211	0.49487399	0.096104179	0.36943137	0.517	0.18809126	0.43911002	0.68775098	0.17061414	0.31208853	0.10717368	0.10011334	0.2864794	0.10136414	0.19038721	0.33162216	0.37050208	0.21403276	0.20771114	0.061365604	0.13894992
2160	21.59	0.44516129	0.064626854	0.14445491	0.41371445	1.0271163	0.1549472	0.33657248	1.0350657	0.19286241	0.20253384	1.0521577	0.027188786	0.30949323	1.0499634	-0.14748172	0.40503201	1.0450812	-0.11765176	0.47507645	1.4493263	0.020366661	0.38129684	1.4820966	0.22679442	0.36917798	1.4939691	-0.16265691	0.50684113	1.2880483	0.013967999	0.4779895	1.4119235	-0.096439812	0.38259692	0.4948974	0.096166618	0.36833755	0.5170127	0.18786668	0.43944937	0.6872381	0.17108675	0.31206946	0.10713907	0.10008818	0.28641592	0.10136793	0.19032245	0.3306723	0.37063412	0.21388171	0.20771809	0.061372208	0.13892841
2161	21.6	0.44516226	0.064616547	0.14445978	0.41590808	1.0275565	0.15550124	0.33842621	1.0351094	0.19326868	0.20458286	1.0520287	0.02738257	0.31166736	1.0500592	-0.14713911	0.40713876	1.0455411	-0.11723513	0.4743812	1.4505253	0.020894812	0.38004987	1.4826187	0.22728944	0.36811563	1.4945151	-0.16215787	0.5072496	1.289415	0.014460982	0.4775672	1.4131406	-0.09592321	0.38182904	0.49489667	0.096247452	0.36733362	0.51701392	0.18763658	0.43984912	0.68674243	0.17152692	0.31205719	0.10710203	0.10005944	0.2863588	0.10137215	0.19025453	0.32979156	0.37075595	0.21373184	0.20772713	0.061381573	0.13890465
